<svg height="512" viewBox="0 0 128 128" width="512" xmlns="http://www.w3.org/2000/svg"><g id="Circle_Grid" data-name="Circle Grid"><circle cx="64" cy="64" fill="#3b5059" r="64"/></g><g id="icon"><path d="m42.058 69.27-17.642-6.301v-25.426l17.642 6.301z" fill="#dbd8dd"/><path d="m42.058 98.032-17.642-6.301v-25.426l17.642 6.301z" fill="#ef5261"/><path d="m62.369 76.238-17.642-6.301v-25.425l17.642 6.3z" fill="#69b0ee"/><path d="m62.369 105-17.642-6.301v-25.426l17.642 6.301z" fill="#f6c863"/><path d="m85.942 69.27 17.642-6.301v-25.426l-17.642 6.301z" fill="#ef5261"/><path d="m85.942 98.032 17.642-6.301v-25.426l-17.642 6.301z" fill="#2cbfae"/><path d="m65.631 76.238 17.642-6.301v-25.425l-17.642 6.3z" fill="#f6c863"/><path d="m65.631 105 17.642-6.301v-25.426l-17.642 6.301z" fill="#69b0ee"/><path d="m48.507 42.658 15.419-5.411 15.567 5.411-15.493 5.856z" fill="#2cbfae"/><path d="m68.969 35.387 15.419-5.411 15.566 5.411-15.492 5.856z" fill="#f6c863"/><path d="m27.824 35.683 15.419-5.412 15.567 5.412-15.493 5.856z" fill="#ef5261"/><path d="m48.286 28.411 15.419-5.411 15.567 5.411-15.493 5.856z" fill="#eeefee"/></g></svg>