<?xml version="1.0" standalone="no"?><svg xmlns="http://www.w3.org/2000/svg" viewBox="0 0 1440 320"><path fill="#0099ff" fill-opacity="1" d="M0,32L40,69.3C80,107,160,181,240,213.3C320,245,400,235,480,234.7C560,235,640,245,720,261.3C800,277,880,299,960,266.7C1040,235,1120,149,1200,133.3C1280,117,1360,171,1400,197.3L1440,224L1440,320L1400,320C1360,320,1280,320,1200,320C1120,320,1040,320,960,320C880,320,800,320,720,320C640,320,560,320,480,320C400,320,320,320,240,320C160,320,80,320,40,320L0,320Z"></path></svg>