<svg height="512" viewBox="0 0 512 512" width="512" xmlns="http://www.w3.org/2000/svg"><g><g><path d="m32 192h448v216h-448z" fill="#e0e0e2"/><path d="m200 312h112v96h-112z" fill="#83d8f4"/><path d="m32 376h168v32h-168z" fill="#ab2300"/><path d="m312 376h168v32h-168z" fill="#ab2300"/><path d="m32 192h448v32h-448z" fill="#ab2300"/><g fill="#83d8f4"><path d="m56 312h112v40h-112z"/><path d="m344 312h112v40h-112z"/><path d="m56 248h112v40h-112z"/><path d="m200 248h112v40h-112z"/><path d="m344 248h112v40h-112z"/></g><path d="m256 120h72v40h-72z" fill="#ffda44"/></g><g><path d="m496 400h-8v-208a8 8 0 0 0 -8-8h-216v-16h64a8 8 0 0 0 8-8v-40a8 8 0 0 0 -8-8h-72a8 8 0 0 0 -8 8v64h-216a8 8 0 0 0 -8 8v208h-8a8 8 0 0 0 0 16h480a8 8 0 0 0 0-16zm-232-272h56v24h-56zm-72 272h-152v-16h152zm112 0h-96v-80h96zm168 0h-152v-16h152zm0-32h-152v-56a8 8 0 0 0 -8-8h-112a8 8 0 0 0 -8 8v56h-152v-136h432zm0-152h-432v-16h432z"/><path d="m168 304h-112a8 8 0 0 0 -8 8v40a8 8 0 0 0 8 8h112a8 8 0 0 0 8-8v-40a8 8 0 0 0 -8-8zm-104 16h40v24h-40zm96 24h-40v-24h40z"/><path d="m344 360h112a8 8 0 0 0 8-8v-40a8 8 0 0 0 -8-8h-112a8 8 0 0 0 -8 8v40a8 8 0 0 0 8 8zm104-16h-40v-24h40zm-96-24h40v24h-40z"/><path d="m168 240h-112a8 8 0 0 0 -8 8v40a8 8 0 0 0 8 8h112a8 8 0 0 0 8-8v-40a8 8 0 0 0 -8-8zm-104 16h40v24h-40zm96 24h-40v-24h40z"/><path d="m320 248a8 8 0 0 0 -8-8h-112a8 8 0 0 0 -8 8v40a8 8 0 0 0 8 8h112a8 8 0 0 0 8-8zm-112 8h40v24h-40zm96 24h-40v-24h40z"/><path d="m344 296h112a8 8 0 0 0 8-8v-40a8 8 0 0 0 -8-8h-112a8 8 0 0 0 -8 8v40a8 8 0 0 0 8 8zm104-16h-40v-24h40zm-96-24h40v24h-40z"/></g></g></svg>